<svg width="225" height="79" viewBox="0 0 225 79" fill="none" xmlns="http://www.w3.org/2000/svg">
<rect x="0.722168" y="0.972168" width="223.389" height="77.2222" rx="38.6111" fill="url(#paint0_linear_0_61)"/>
<rect x="0.722168" y="0.972168" width="223.389" height="77.2222" rx="38.6111" fill="#1C1C1C"/>
<path d="M49.3301 46.3533C48.0341 46.3533 46.9301 46.0713 46.0181 45.5073C45.1061 44.9373 44.4071 44.1453 43.9211 43.1313C43.4411 42.1173 43.2011 40.9413 43.2011 39.6033C43.2011 38.2653 43.4411 37.0893 43.9211 36.0753C44.4071 35.0613 45.1061 34.2723 46.0181 33.7083C46.9301 33.1383 48.0341 32.8533 49.3301 32.8533C50.6201 32.8533 51.7211 33.1383 52.6331 33.7083C53.5511 34.2723 54.2501 35.0613 54.7301 36.0753C55.2101 37.0893 55.4501 38.2653 55.4501 39.6033C55.4501 40.9413 55.2101 42.1173 54.7301 43.1313C54.2501 44.1453 53.5511 44.9373 52.6331 45.5073C51.7211 46.0713 50.6201 46.3533 49.3301 46.3533ZM49.3301 44.5623C50.2481 44.5743 51.0101 44.3733 51.6161 43.9593C52.2281 43.5393 52.6871 42.9573 52.9931 42.2133C53.2991 41.4633 53.4521 40.5933 53.4521 39.6033C53.4521 38.6133 53.2991 37.7493 52.9931 37.0113C52.6871 36.2673 52.2281 35.6883 51.6161 35.2743C51.0101 34.8603 50.2481 34.6503 49.3301 34.6443C48.4121 34.6323 47.6471 34.8333 47.0351 35.2473C46.4291 35.6613 45.9731 36.2433 45.6671 36.9933C45.3611 37.7433 45.2051 38.6133 45.1991 39.6033C45.1931 40.5933 45.3431 41.4603 45.6491 42.2043C45.9551 42.9423 46.4141 43.5183 47.0261 43.9323C47.6441 44.3463 48.4121 44.5563 49.3301 44.5623ZM64.0674 46.0833V41.3043C64.0674 40.9263 64.0344 40.5393 63.9684 40.1433C63.9084 39.7413 63.7884 39.3693 63.6084 39.0273C63.4344 38.6853 63.1854 38.4093 62.8614 38.1993C62.5434 37.9893 62.1264 37.8843 61.6104 37.8843C61.2744 37.8843 60.9564 37.9413 60.6564 38.0553C60.3564 38.1633 60.0924 38.3403 59.8644 38.5863C59.6424 38.8323 59.4654 39.1563 59.3334 39.5583C59.2074 39.9603 59.1444 40.4493 59.1444 41.0253L57.9744 40.5843C57.9744 39.7023 58.1394 38.9253 58.4694 38.2533C58.7994 37.5753 59.2734 37.0473 59.8914 36.6693C60.5094 36.2913 61.2564 36.1023 62.1324 36.1023C62.8044 36.1023 63.3684 36.2103 63.8244 36.4263C64.2804 36.6423 64.6494 36.9273 64.9314 37.2813C65.2194 37.6293 65.4384 38.0103 65.5884 38.4243C65.7384 38.8383 65.8404 39.2433 65.8944 39.6393C65.9484 40.0353 65.9754 40.3833 65.9754 40.6833V46.0833H64.0674ZM57.2364 46.0833V36.3633H58.9194V39.1713H59.1444V46.0833H57.2364ZM72.8826 46.3533C71.9526 46.3533 71.1726 46.1283 70.5426 45.6783C69.9126 45.2223 69.4356 44.6073 69.1116 43.8333C68.7876 43.0593 68.6256 42.1863 68.6256 41.2143C68.6256 40.2423 68.7846 39.3693 69.1026 38.5953C69.4266 37.8213 69.9006 37.2123 70.5246 36.7683C71.1546 36.3183 71.9286 36.0933 72.8466 36.0933C73.7586 36.0933 74.5446 36.3183 75.2046 36.7683C75.8706 37.2123 76.3836 37.8213 76.7436 38.5953C77.1036 39.3633 77.2836 40.2363 77.2836 41.2143C77.2836 42.1863 77.1036 43.0623 76.7436 43.8423C76.3896 44.6163 75.8826 45.2283 75.2226 45.6783C74.5686 46.1283 73.7886 46.3533 72.8826 46.3533ZM68.3106 46.0833V33.1233H70.2006V39.0903H69.9846V46.0833H68.3106ZM72.6216 44.6523C73.2216 44.6523 73.7166 44.4993 74.1066 44.1933C74.5026 43.8873 74.7966 43.4763 74.9886 42.9603C75.1866 42.4383 75.2856 41.8563 75.2856 41.2143C75.2856 40.5783 75.1866 40.0023 74.9886 39.4863C74.7966 38.9703 74.4996 38.5593 74.0976 38.2533C73.6956 37.9473 73.1826 37.7943 72.5586 37.7943C71.9706 37.7943 71.4846 37.9383 71.1006 38.2263C70.7226 38.5143 70.4406 38.9163 70.2546 39.4323C70.0746 39.9483 69.9846 40.5423 69.9846 41.2143C69.9846 41.8863 70.0746 42.4803 70.2546 42.9963C70.4346 43.5123 70.7196 43.9173 71.1096 44.2113C71.4996 44.5053 72.0036 44.6523 72.6216 44.6523ZM83.4917 46.3533C82.5197 46.3533 81.6767 46.1343 80.9627 45.6963C80.2487 45.2583 79.6967 44.6553 79.3067 43.8873C78.9227 43.1133 78.7307 42.2223 78.7307 41.2143C78.7307 40.2003 78.9287 39.3093 79.3247 38.5413C79.7207 37.7673 80.2757 37.1673 80.9897 36.7413C81.7037 36.3093 82.5377 36.0933 83.4917 36.0933C84.4637 36.0933 85.3067 36.3123 86.0207 36.7503C86.7347 37.1883 87.2867 37.7913 87.6767 38.5593C88.0667 39.3273 88.2617 40.2123 88.2617 41.2143C88.2617 42.2283 88.0637 43.1223 87.6677 43.8963C87.2777 44.6643 86.7257 45.2673 86.0117 45.7053C85.2977 46.1373 84.4577 46.3533 83.4917 46.3533ZM83.4917 44.5803C84.4217 44.5803 85.1147 44.2683 85.5707 43.6443C86.0327 43.0143 86.2637 42.2043 86.2637 41.2143C86.2637 40.2003 86.0297 39.3903 85.5617 38.7843C85.0997 38.1723 84.4097 37.8663 83.4917 37.8663C82.8617 37.8663 82.3427 38.0103 81.9347 38.2983C81.5267 38.5803 81.2237 38.9733 81.0257 39.4773C80.8277 39.9753 80.7287 40.5543 80.7287 41.2143C80.7287 42.2343 80.9627 43.0503 81.4307 43.6623C81.8987 44.2743 82.5857 44.5803 83.4917 44.5803ZM92.9845 46.3533C92.2645 46.3533 91.6615 46.2213 91.1755 45.9573C90.6895 45.6873 90.3205 45.3333 90.0685 44.8953C89.8225 44.4513 89.6995 43.9653 89.6995 43.4373C89.6995 42.9453 89.7865 42.5133 89.9605 42.1413C90.1345 41.7693 90.3925 41.4543 90.7345 41.1963C91.0765 40.9323 91.4965 40.7193 91.9945 40.5573C92.4265 40.4313 92.9155 40.3203 93.4615 40.2243C94.0075 40.1283 94.5805 40.0383 95.1805 39.9543C95.7865 39.8703 96.3865 39.7863 96.9805 39.7023L96.2965 40.0803C96.3085 39.3183 96.1465 38.7543 95.8105 38.3883C95.4805 38.0163 94.9105 37.8303 94.1005 37.8303C93.5905 37.8303 93.1225 37.9503 92.6965 38.1903C92.2705 38.4243 91.9735 38.8143 91.8055 39.3603L90.0505 38.8203C90.2905 37.9863 90.7465 37.3233 91.4185 36.8313C92.0965 36.3393 92.9965 36.0933 94.1185 36.0933C94.9885 36.0933 95.7445 36.2433 96.3865 36.5433C97.0345 36.8373 97.5085 37.3053 97.8085 37.9473C97.9645 38.2653 98.0605 38.6013 98.0965 38.9553C98.1325 39.3093 98.1505 39.6903 98.1505 40.0983V46.0833H96.4855V43.8603L96.8095 44.1483C96.4075 44.8923 95.8945 45.4473 95.2705 45.8133C94.6525 46.1733 93.8905 46.3533 92.9845 46.3533ZM93.3175 44.8143C93.8515 44.8143 94.3105 44.7213 94.6945 44.5353C95.0785 44.3433 95.3875 44.1003 95.6215 43.8063C95.8555 43.5123 96.0085 43.2063 96.0805 42.8883C96.1825 42.6003 96.2395 42.2763 96.2515 41.9163C96.2695 41.5563 96.2785 41.2683 96.2785 41.0523L96.8905 41.2773C96.2965 41.3673 95.7565 41.4483 95.2705 41.5203C94.7845 41.5923 94.3435 41.6643 93.9475 41.7363C93.5575 41.8023 93.2095 41.8833 92.9035 41.9793C92.6455 42.0693 92.4145 42.1773 92.2105 42.3033C92.0125 42.4293 91.8535 42.5823 91.7335 42.7623C91.6195 42.9423 91.5625 43.1613 91.5625 43.4193C91.5625 43.6713 91.6255 43.9053 91.7515 44.1213C91.8775 44.3313 92.0695 44.4993 92.3275 44.6253C92.5855 44.7513 92.9155 44.8143 93.3175 44.8143ZM100.488 46.0833V36.3633H102.162V38.7213L101.928 38.4153C102.048 38.1033 102.204 37.8183 102.396 37.5603C102.588 37.2963 102.81 37.0803 103.062 36.9123C103.308 36.7323 103.581 36.5943 103.881 36.4983C104.187 36.3963 104.499 36.3363 104.817 36.3183C105.135 36.2943 105.441 36.3093 105.735 36.3633V38.1273C105.417 38.0433 105.063 38.0193 104.673 38.0553C104.289 38.0913 103.935 38.2143 103.611 38.4243C103.305 38.6223 103.062 38.8623 102.882 39.1443C102.708 39.4263 102.582 39.7413 102.504 40.0893C102.426 40.4313 102.387 40.7943 102.387 41.1783V46.0833H100.488ZM111.134 46.3533C110.228 46.3533 109.445 46.1283 108.785 45.6783C108.131 45.2283 107.624 44.6163 107.264 43.8423C106.91 43.0623 106.733 42.1863 106.733 41.2143C106.733 40.2363 106.913 39.3633 107.273 38.5953C107.633 37.8213 108.143 37.2123 108.803 36.7683C109.469 36.3183 110.258 36.0933 111.17 36.0933C112.088 36.0933 112.859 36.3183 113.483 36.7683C114.113 37.2123 114.587 37.8213 114.905 38.5953C115.229 39.3693 115.391 40.2423 115.391 41.2143C115.391 42.1863 115.229 43.0593 114.905 43.8333C114.581 44.6073 114.104 45.2223 113.474 45.6783C112.844 46.1283 112.064 46.3533 111.134 46.3533ZM111.395 44.6523C112.013 44.6523 112.517 44.5053 112.907 44.2113C113.297 43.9173 113.582 43.5123 113.762 42.9963C113.942 42.4803 114.032 41.8863 114.032 41.2143C114.032 40.5423 113.939 39.9483 113.753 39.4323C113.573 38.9163 113.291 38.5143 112.907 38.2263C112.529 37.9383 112.046 37.7943 111.458 37.7943C110.834 37.7943 110.321 37.9473 109.919 38.2533C109.517 38.5593 109.217 38.9703 109.019 39.4863C108.827 40.0023 108.731 40.5783 108.731 41.2143C108.731 41.8563 108.827 42.4383 109.019 42.9603C109.217 43.4763 109.511 43.8873 109.901 44.1933C110.297 44.4993 110.795 44.6523 111.395 44.6523ZM114.032 46.0833V39.0903H113.816V33.1233H115.706V46.0833H114.032ZM125.058 46.0833V34.8963H120.747V33.1233H131.25V34.8963H126.939V46.0833H125.058ZM134.17 46.3533C133.45 46.3533 132.847 46.2213 132.361 45.9573C131.875 45.6873 131.506 45.3333 131.254 44.8953C131.008 44.4513 130.885 43.9653 130.885 43.4373C130.885 42.9453 130.972 42.5133 131.146 42.1413C131.32 41.7693 131.578 41.4543 131.92 41.1963C132.262 40.9323 132.682 40.7193 133.18 40.5573C133.612 40.4313 134.101 40.3203 134.647 40.2243C135.193 40.1283 135.766 40.0383 136.366 39.9543C136.972 39.8703 137.572 39.7863 138.166 39.7023L137.482 40.0803C137.494 39.3183 137.332 38.7543 136.996 38.3883C136.666 38.0163 136.096 37.8303 135.286 37.8303C134.776 37.8303 134.308 37.9503 133.882 38.1903C133.456 38.4243 133.159 38.8143 132.991 39.3603L131.236 38.8203C131.476 37.9863 131.932 37.3233 132.604 36.8313C133.282 36.3393 134.182 36.0933 135.304 36.0933C136.174 36.0933 136.93 36.2433 137.572 36.5433C138.22 36.8373 138.694 37.3053 138.994 37.9473C139.15 38.2653 139.246 38.6013 139.282 38.9553C139.318 39.3093 139.336 39.6903 139.336 40.0983V46.0833H137.671V43.8603L137.995 44.1483C137.593 44.8923 137.08 45.4473 136.456 45.8133C135.838 46.1733 135.076 46.3533 134.17 46.3533ZM134.503 44.8143C135.037 44.8143 135.496 44.7213 135.88 44.5353C136.264 44.3433 136.573 44.1003 136.807 43.8063C137.041 43.5123 137.194 43.2063 137.266 42.8883C137.368 42.6003 137.425 42.2763 137.437 41.9163C137.455 41.5563 137.464 41.2683 137.464 41.0523L138.076 41.2773C137.482 41.3673 136.942 41.4483 136.456 41.5203C135.97 41.5923 135.529 41.6643 135.133 41.7363C134.743 41.8023 134.395 41.8833 134.089 41.9793C133.831 42.0693 133.6 42.1773 133.396 42.3033C133.198 42.4293 133.039 42.5823 132.919 42.7623C132.805 42.9423 132.748 43.1613 132.748 43.4193C132.748 43.6713 132.811 43.9053 132.937 44.1213C133.063 44.3313 133.255 44.4993 133.513 44.6253C133.771 44.7513 134.101 44.8143 134.503 44.8143ZM141.853 46.0833V32.8533H143.734V46.0833H141.853ZM150.748 46.3533C149.782 46.3533 148.933 46.1433 148.201 45.7233C147.475 45.2973 146.908 44.7063 146.5 43.9503C146.098 43.1883 145.897 42.3063 145.897 41.3043C145.897 40.2423 146.095 39.3213 146.491 38.5413C146.893 37.7613 147.451 37.1583 148.165 36.7323C148.879 36.3063 149.71 36.0933 150.658 36.0933C151.648 36.0933 152.491 36.3243 153.187 36.7863C153.883 37.2423 154.402 37.8933 154.744 38.7393C155.092 39.5853 155.23 40.5903 155.158 41.7543H153.277V41.0703C153.265 39.9423 153.049 39.1083 152.629 38.5683C152.215 38.0283 151.582 37.7583 150.73 37.7583C149.788 37.7583 149.08 38.0553 148.606 38.6493C148.132 39.2433 147.895 40.1013 147.895 41.2233C147.895 42.2913 148.132 43.1193 148.606 43.7073C149.08 44.2893 149.764 44.5803 150.658 44.5803C151.246 44.5803 151.753 44.4483 152.179 44.1843C152.611 43.9143 152.947 43.5303 153.187 43.0323L155.032 43.6173C154.654 44.4873 154.081 45.1623 153.313 45.6423C152.545 46.1163 151.69 46.3533 150.748 46.3533ZM147.283 41.7543V40.2873H154.222V41.7543H147.283ZM163.735 46.0833V41.3043C163.735 40.9263 163.702 40.5393 163.636 40.1433C163.576 39.7413 163.456 39.3693 163.276 39.0273C163.102 38.6853 162.853 38.4093 162.529 38.1993C162.211 37.9893 161.794 37.8843 161.278 37.8843C160.942 37.8843 160.624 37.9413 160.324 38.0553C160.024 38.1633 159.76 38.3403 159.532 38.5863C159.31 38.8323 159.133 39.1563 159.001 39.5583C158.875 39.9603 158.812 40.4493 158.812 41.0253L157.642 40.5843C157.642 39.7023 157.807 38.9253 158.137 38.2533C158.467 37.5753 158.941 37.0473 159.559 36.6693C160.177 36.2913 160.924 36.1023 161.8 36.1023C162.472 36.1023 163.036 36.2103 163.492 36.4263C163.948 36.6423 164.317 36.9273 164.599 37.2813C164.887 37.6293 165.106 38.0103 165.256 38.4243C165.406 38.8383 165.508 39.2433 165.562 39.6393C165.616 40.0353 165.643 40.3833 165.643 40.6833V46.0833H163.735ZM156.904 46.0833V36.3633H158.587V39.1713H158.812V46.0833H156.904ZM173.55 46.0833C172.938 46.2033 172.338 46.2543 171.75 46.2363C171.162 46.2183 170.637 46.1043 170.175 45.8943C169.713 45.6843 169.365 45.3543 169.131 44.9043C168.921 44.5023 168.807 44.0943 168.789 43.6803C168.777 43.2603 168.771 42.7863 168.771 42.2583V33.6633H170.661V42.1683C170.661 42.5583 170.664 42.8973 170.67 43.1853C170.682 43.4733 170.745 43.7163 170.859 43.9143C171.075 44.2863 171.417 44.4993 171.885 44.5533C172.359 44.6013 172.914 44.5803 173.55 44.4903V46.0833ZM166.908 37.8753V36.3633H173.55V37.8753H166.908Z" fill="white"/>
<defs>
<linearGradient id="paint0_linear_0_61" x1="7.37945" y1="0.972165" x2="233.592" y2="87.7592" gradientUnits="userSpaceOnUse">
<stop stop-color="#1C1C1C"/>
<stop offset="1" stop-color="#454444"/>
</linearGradient>
</defs>
</svg>
